<svg width="238" height="53" viewBox="0 0 238 53" fill="none" xmlns="http://www.w3.org/2000/svg">
<g clip-path="url(#clip0)">
<path d="M74.1376 8.29294C73.2647 5.05059 70.7082 2.49412 67.4659 1.62118C61.5423 0 37.8482 0 37.8482 0C37.8482 0 14.1541 0 8.23059 1.55882C5.05059 2.43176 2.43176 5.05059 1.55882 8.29294C0 14.2165 0 26.5 0 26.5C0 26.5 0 38.8459 1.55882 44.7071C2.43176 47.9494 4.98823 50.5059 8.23059 51.3788C14.2165 53 37.8482 53 37.8482 53C37.8482 53 61.5423 53 67.4659 51.4412C70.7082 50.5682 73.2647 48.0118 74.1376 44.7694C75.6965 38.8459 75.6965 26.5624 75.6965 26.5624C75.6965 26.5624 75.7588 14.2165 74.1376 8.29294Z" fill="#FF0000"/>
<path d="M30.3035 37.8482L50.0071 26.5L30.3035 15.1517V37.8482Z" fill="white"/>
<path d="M109.928 48.2611C108.432 47.2635 107.372 45.7047 106.748 43.5223C106.125 41.4023 105.813 38.5341 105.813 35.0423V30.2411C105.813 26.687 106.187 23.8188 106.873 21.6364C107.621 19.4541 108.744 17.8952 110.24 16.8976C111.799 15.8999 113.794 15.4011 116.288 15.4011C118.72 15.4011 120.715 15.8999 122.212 16.8976C123.708 17.8952 124.768 19.5164 125.454 21.6364C126.14 23.7564 126.514 26.6247 126.514 30.2411V35.0423C126.514 38.5964 126.202 41.4023 125.516 43.5847C124.831 45.7047 123.771 47.3258 122.274 48.3235C120.778 49.3211 118.72 49.82 116.164 49.82C113.545 49.7576 111.425 49.2588 109.928 48.2611ZM118.346 43.0235C118.782 41.9635 118.969 40.1552 118.969 37.7235V27.3729C118.969 25.0035 118.782 23.2576 118.346 22.1352C117.909 21.0129 117.224 20.5141 116.164 20.5141C115.166 20.5141 114.418 21.0752 114.044 22.1352C113.607 23.2576 113.42 25.0035 113.42 27.3729V37.7235C113.42 40.1552 113.607 41.9635 114.044 43.0235C114.418 44.0835 115.166 44.6447 116.226 44.6447C117.224 44.6447 117.909 44.1458 118.346 43.0235Z" fill="#282828"/>
<path d="M225.032 35.1046V36.7881C225.032 38.9081 225.094 40.5293 225.219 41.5893C225.344 42.6493 225.593 43.4599 226.029 43.8964C226.404 44.3952 227.027 44.6446 227.9 44.6446C229.022 44.6446 229.771 44.2081 230.207 43.3352C230.644 42.4622 230.831 41.0281 230.893 38.9705L237.315 39.3446C237.378 39.6564 237.378 40.0305 237.378 40.5293C237.378 43.5846 236.567 45.8917 234.884 47.3881C233.2 48.8846 230.831 49.6328 227.775 49.6328C224.096 49.6328 221.54 48.4481 220.044 46.1411C218.547 43.834 217.799 40.2799 217.799 35.4164V29.6175C217.799 24.6293 218.547 21.0128 220.106 18.7058C221.665 16.3987 224.284 15.2764 227.962 15.2764C230.519 15.2764 232.514 15.7752 233.886 16.7105C235.258 17.6458 236.193 19.1422 236.754 21.0752C237.315 23.0705 237.565 25.814 237.565 29.3058V34.9799H225.032V35.1046ZM225.967 21.1375C225.593 21.6364 225.344 22.3846 225.219 23.4446C225.094 24.5046 225.032 26.1258 225.032 28.3081V30.6775H230.519V28.3081C230.519 26.1881 230.456 24.567 230.332 23.4446C230.207 22.3222 229.895 21.574 229.521 21.1375C229.147 20.7011 228.524 20.4517 227.775 20.4517C226.902 20.3893 226.341 20.6387 225.967 21.1375Z" fill="#282828"/>
<path d="M91.7212 34.4811L83.2411 3.74109H90.6611L93.6541 17.6458C94.4023 21.0752 94.9635 24.0058 95.3376 26.4376H95.5247C95.7741 24.6917 96.3353 21.8234 97.2082 17.7081L100.326 3.74109H107.746L99.1411 34.4811V49.1964H91.7835V34.4811H91.7212Z" fill="#282828"/>
<path d="M150.645 16.0247V49.2588H144.783L144.16 45.2058H143.973C142.414 48.2611 139.982 49.8199 136.802 49.8199C134.62 49.8199 132.999 49.0717 131.939 47.6376C130.879 46.2035 130.38 43.9588 130.38 40.8411V16.0247H137.862V40.4047C137.862 41.9011 138.049 42.9611 138.361 43.5847C138.673 44.2082 139.234 44.5199 139.982 44.5199C140.606 44.5199 141.229 44.3329 141.853 43.8964C142.476 43.5223 142.913 43.0235 143.162 42.3999V16.0247H150.645Z" fill="#282828"/>
<path d="M188.992 16.0247V49.2588H183.131L182.507 45.2058H182.32C180.761 48.2611 178.329 49.8199 175.149 49.8199C172.967 49.8199 171.346 49.0717 170.286 47.6376C169.226 46.2035 168.727 43.9588 168.727 40.8411V16.0247H176.209V40.4047C176.209 41.9011 176.396 42.9611 176.708 43.5847C177.02 44.2082 177.581 44.5199 178.329 44.5199C178.953 44.5199 179.576 44.3329 180.2 43.8964C180.824 43.5223 181.26 43.0235 181.509 42.3999V16.0247H188.992Z" fill="#282828"/>
<path d="M170.972 9.78932H163.552V49.1964H156.256V9.78932H148.836V3.74109H170.972V9.78932Z" fill="#282828"/>
<path d="M213.746 21.3247C213.309 19.2047 212.561 17.7082 211.563 16.7729C210.566 15.8376 209.132 15.3388 207.386 15.3388C206.014 15.3388 204.705 15.7129 203.52 16.5235C202.335 17.2717 201.4 18.3317 200.776 19.5788H200.714V2.05762H193.481V49.1964H199.654L200.402 46.0788H200.589C201.151 47.2012 202.023 48.0741 203.208 48.76C204.393 49.3835 205.64 49.7576 207.074 49.7576C209.631 49.7576 211.439 48.5729 212.623 46.2659C213.808 43.9588 214.432 40.28 214.432 35.3541V30.1164C214.369 26.3129 214.182 23.3823 213.746 21.3247ZM206.887 34.8553C206.887 37.287 206.762 39.1576 206.575 40.5294C206.388 41.9012 206.014 42.8988 205.578 43.46C205.079 44.0211 204.455 44.3329 203.707 44.3329C203.083 44.3329 202.522 44.2082 202.023 43.8964C201.525 43.5847 201.088 43.1482 200.776 42.587V23.7564C201.026 22.8835 201.462 22.1353 202.086 21.5117C202.709 20.9506 203.395 20.6388 204.081 20.6388C204.829 20.6388 205.453 20.9506 205.827 21.5117C206.263 22.1353 206.513 23.1329 206.7 24.5047C206.887 25.9388 206.949 27.9341 206.949 30.4906V34.8553H206.887Z" fill="#282828"/>
</g>
<defs>
<clipPath id="clip0">
<rect width="237.502" height="53" fill="white"/>
</clipPath>
</defs>
</svg>
